<?xml version="1.0" encoding="utf-8"?>
<!-- Generator: Adobe Illustrator 24.1.1, SVG Export Plug-In . SVG Version: 6.00 Build 0)  -->
<svg version="1.1" xmlns="http://www.w3.org/2000/svg" xmlns:xlink="http://www.w3.org/1999/xlink" x="0px" y="0px"
	 viewBox="0 0 2100 500" style="enable-background:new 0 0 2100 500;" xml:space="preserve">
<style type="text/css">
	.st0{fill:#C82222;}
	.st1{fill:#231F20;}
</style>
<g id="Layer_2">
	<rect y="-41.6" class="st0" width="2106.5" height="583.8"/>
</g>
<g id="Layer_1">
	<g id="ekg">
		<path class="st1" d="M0.7,267.9c17.1-14.8,22.2,1.8,34.9,3.2c9.6,1.1,16.4-8.1,26.1-8.9c17.1-1.5,17.7,8.8,29,16.3
			c15.8-11.1,27.4-204.8,27.4-204.8s13.5,174,15.6,241.6c1.9-14.6,1.6-37.4,11.8-50.3c12.3-15.5,27.2-18,34.7-38
			c5.4-14.1,18.8-50.5,38.1-25.5c11.7,15.2,5.6,54.5,28.6,62.9c4.7,1.7,15.9-1.7,22.4-1.8s8.8,3.3,14.2,2.1s8.7-7,13.7-8.4
			c15.5-4.4,16.8,2.9,24.5,13.3c10.4,13.7,8.4,12,22.5,2.8c6.9-4.6,17.9-12.3,27.6-10.6c11.7,1.9,12.2,19.4,19.8,20.5
			c5.3,0.6,8.9-7.7,15.4-8.7c17.5-2.7,21.1,13.8,28.1,23.4c10.4-11.4,10.8-33.6,12.7-47.1c4-27.4,15-149.3,15-149.3
			s13.5,139.3,15.8,198.9c2-13.3,2.7-43.9,13.1-55c7.7-8.3,22.4-10.6,31.1-17.9c12.8-10.8,11.1-27.4,20.4-40.4
			c31.1-43.9,44.1,61.2,48.1,77.4c1.4,5.9,2,17,8.9,20.2c3.5,1.7,13.8-6.9,25.1-1s27.1-0.7,40.7,0.4c15.8,1.3,19.5-1.6,31.5-10.7
			c6.4-4.9,11.3-12.6,21.6-11.5c14.7,1.3,13.4,17.6,24.7,21.9c16.1,6,16.3-10,29.2-12.3c12.9-2.2,17.9,12.6,26,19.6
			c13.4-15,10.7-49,12.2-66.9c3.3-38.7,13.8-176.7,13.8-176.7s12.8,189,15.2,268.6c1.9-14,1.2-39.4,12.7-51.1
			c5-5.2,14.9-3.8,18.9-7.4c4-3.5,3.3-7.5,5.2-11.2c8-15.1,21.5-38.2,39.9-18c10.8,11.8,4.9,38.1,22,45.2c9.6,3.9,26.1-2,37-1.8
			c5.6,0.1,8.6,3.1,14.2,1.4c5.6-1.7,7.9-9.8,12.7-12.7c14.8-8.6,16.6-0.9,27,9.3c10.3,10.2,12.5,9.1,25.9,0.7
			c7.5-4.7,11.8-10.4,22.4-10.5c5.7,0,12,5.4,17,4.9c11.3-1.1,7.2-5.1,15.1-9.2c33.2-17.5,32.7,18.1,43.5,38.9
			c17.2,1.2,26.1-184.7,26.1-184.7s11.7,174.4,13.7,239.1c2-15,1.9-37.6,12.3-50.8c3.4-4.5,10.2-7.2,14.8-10.6
			c14.5-10.9,16.4-19.9,22.6-35.4s22-38.9,40.4-17.9c7.5,8.5,4.7,11.3,14,17.3c13.7,8.9,13.1,3.3,28.3,3.5
			c5.5,0.1,10.1,3.6,15.7,3.4c5.6-0.2,12.2-4.6,18.9-4c14.9,1.1,14.8,9.9,23,18.6c12.5,13.4,4.5,6,18.4,2.1c16.2-4.5,9,3.5,23,5.4
			s4.3-6.1,14.4-11.4c14.7-7.7,16.6,8,26.7,11.1c22.9,7.1,19.6-32.1,46.3-4.9c9.7-19.9,8.2-46.7,9.7-67.6
			c2.7-38.9,11.1-116.2,11.1-116.2s10.3,178,12.3,242.8c1.9-14.7,3-55.4,13.1-68.2c12.3-15.5,27.4-18.3,34.8-38
			c5.4-14.3,18.8-50.5,38-25.5c13.5,17.4,5.4,48.6,27.2,62.2c8.6-6.7,8.2-19.5,23.6-14.4c5.9,2,6.3,11.6,11.1,13.4
			c8.2,2.8,0.1,0.2,9.6-1.8c9.5-2,10.1-10.4,22.4-4.6c3.9,1.7,7.3,10.2,9.6,13.3c9.5,11.9,8.7,12.1,21.7,3.4
			c9.3-6.3,22.4-15.1,34.8-9.3c12.4,5.8,4.5,21,18.3,13.2c9.8-5.5,4.2-23.4,19.6-26.7c20.3-4.3,22.6,21.6,35.9,27.5
			c15.5-11.7,18.2-44.8,21.5-60.7c2.5-12.6,19.8-93.2,19.8-93.2s12.9,181.1,16.5,242.9c2.7-18.9,18.6-171.9,62.8-146.7
			c13.6,7.7,9.7,27.2,20.3,37.7c10.6,10.4,14.4,5.4,29.7,5.1c6.1-0.2,10,2.4,16.1,1.2c6.1-1.2,12-10.6,19.7-10
			c14.3,1,16.5,21.9,27.1,27.9c4.2-2.6,7.6-6.4,12.1-8V-6.7H0v277C0.9,269.7-0.4,268.9,0.7,267.9L0.7,267.9z"/>
		<path class="st1" d="M2097.3,291.1c-7.2-0.4-12.8-9.8-16.2-14.1c-1.9-2.2-7.9-13.7-9.7-14c-1.9-0.3-6.2,4.8-8.7,5.1
			c-8.4,0.9-12.3,5.4-22.6,5.4c-5.4,0.1-12.3-0.1-17.2-0.3c-19.2-0.4-26.1-8.4-33.8-24.9c-2.6-5.7-4-19-10.6-21.4
			c-13.6-4.9-18.3,17.5-21.1,25.3c-7.3,20.4-41.5,177.1-41.5,177.1s-11.7-203.8-13.8-240.3c-2.1,14-9.1,97.8-36.9,97.8
			c-16.5,0-21.2-33.9-36.5-25.6c-12.2,6.6-5.3,37-29.3,27.5c-16.5-6.6-6.9-24.8-29.9-13.1c-8.1,4-15,16.2-25.6,15.4
			c-7.5-0.6-12.3-9.3-16.1-14.1l-9.8-14c-3,1.4-5.9,3.1-8.6,5.1c-9.5,0.9-7.9,8.9-18.9,5.4c-7.6-2.3-8.3-12.9-14.5-16.7
			c-5.4,4.8-6.8,15.2-15.9,16.1c-11.8,1.2-19.3-14.7-23-22c-6.7-13.2-4.5-41.5-18.2-49.5c-9.1,2.8-12.2,19.5-14.8,26.3
			c-6.2,16.5-12.3,23.8-27.2,35.7c-14.9,11.9-15.2,23.3-18.1,41.5c-2.8,18.2-13.2,100.7-14.7,101c-4.2,1.2-7.9-86.5-9-122.4
			c-0.8-26.2-2.7-65.5-3.5-91.7c-1.2,17.2,4.3,71.8-9.7,86.2s-12.7-1.1-27.4-5.4c-9.1,8.7-8.2,21.7-27.1,17.3
			c-10-2.3-12.4-12.5-21.2-15.1c-6.6,5.3-4.7,14.4-15.9,15.9c-9.4,1.1-15.7-9.6-22.4-9s-9.5,10.8-20.2,8
			c-13.1-3.4-12.2-21.5-22.5-25.9c-7.5-3.3-19.5,2.2-28.8,2.4c-4.2,0.1-14.2-1.7-18.3-2c-4.1-0.3-5.5,2.9-8.4,2.5
			c-5.5-0.7-22.5-8.1-26.5-11.8c-4-3.7-4.2-17.1-12.3-20c-15-5.5-19.3,26.5-22.7,34c-7.7,17-26.4,22.3-35.5,36.8
			c-10,16.1-19.8,134.4-19.8,134.4s-9.4-79.3-10.3-105.1c-1.2-39.6-2.4-79.1-3.8-118.6c-1.8,20.4,0.9,63.4-15.4,80.6
			c-25.4,26.7-22.7-36.2-36.9-39.9c-7.9-2-18.4,15.5-30.1,16c-16.8,0.5-16.8-7-32.6,2.2c-5.3,3.1-11.6,10.5-17.9,11.4
			c-15.9,2.5-25.1-13.2-33.4-22.7c-6,4.8-10.2,13.7-17.6,16.8c-10.2,4.4-15.5-1.9-25.4-1.8c-23.4,0.1-38,10.3-50.4-14.5
			c-3.5-7.2-4.8-36.9-15.7-36.8c-8.2,0.1-13.1,14-15.5,18.6c-6,12.3-5.6,12.3-15.9,19.3s-9.4,2.4-14.1,12.1
			c-6.3,13.6-25.2,126.3-25.2,126.3s-2.9-93.2-3.8-118.5c-1.2-37.9-2.3-75.8-3.6-113.7c-1.5,28.3-2.9,56.9-6.9,85
			c-1.3,8.8-1.9,37-14.5,41.5c-12.7,4.6-14.3-9.3-21.7-14.2c-12.9-8.3-1.6-3-15.6,3.5c-11.1,5.4-20.4,7.9-31.7,0
			c-11.3-7.9-8.2-19.5-23-15.7c-7.3,1.9-14.4,14.5-21.8,17.8c-13.6,6.2-20.5-0.8-32-0.9c-9.6,0-18.2,4.5-28,4.6
			c-4.6,0.1-9.3-3.4-14-3.5c-4.7-0.1-6.7,3.8-10.6,3.6c-24.5-1.4-25-29.2-28.1-45.8c-2.7-14.3-3-56.2-18.2-65
			c-7.7,2.4-11.5,17.6-13.6,23c-5.3,14-7.6,22.4-22.2,31.4c-17.2,10.8-24.2,9.9-29.2,26.8c-9.1,30.4-16.8,103.2-16.8,103.2
			s-9.6-84.5-10.3-102.7l-2.8-70.9c-1.1,13-1.4,114.5-30,112.9c-11.6-0.7-10.2-15.8-17.4-20.4c-12.8-8-4.9-0.8-13.6,1.2
			c-16.3,3.7-12.9,3.6-24.7-5.8c-9.5-7.4-0.4-13.8-18.6-7.9c-8.9,2.9-14.3,14.5-23.3,16.1c-13.2,2.5-17.2-8.7-24.3-16.5
			c-12.9-14-5.6-7-22.6-1.3c-11,3.6-18.2-0.4-29.2-0.6c-11-0.2-12.1,5.3-23.3-2.1c-7.7-5.1-12.4-16-15.5-23.6
			c-4.8-11.7-3.4-37.4-15.9-44.5c-9.4,2.9-13.2,23-15.7,29.5c-3.3,8.2-5,14.9-11.7,21.8c-6.7,6.9-18.4,10.1-23.7,17.1
			c-8.6,11.4-11.4,30.1-13,42.8s-12.3,89.6-12.3,89.6s-8.2-147.4-10.3-213.8c-1.1,13.8-1.5,110.6-35.6,96.9
			c-12-4.8-8.6-15.4-24.7-13.2c-8.2,1.1-12.2,9.6-22.3,8.6c-7.4-0.7-10.8-8.8-16.8-9.4c-8.4-0.9-11.8,6.6-19.7,8.4V500h2110.7V286.5
			C2107.2,289.5,2102.3,291.2,2097.3,291.1z"/>
	</g>
</g>
</svg>
